<mxfile host="app.diagrams.net" modified="2023-12-13T20:22:58.885Z" agent="Mozilla/5.0 (Windows NT 10.0; Win64; x64) AppleWebKit/537.36 (KHTML, like Gecko) Chrome/120.0.0.0 Safari/537.36" etag="yaNEhHPY8IbNNr5hBwv-" version="22.1.8" type="device">
  <diagram name="Страница — 1" id="mSpJ84TIdgSl6yTzL5KD">
    <mxGraphModel dx="1433" dy="853" grid="1" gridSize="10" guides="1" tooltips="1" connect="1" arrows="1" fold="1" page="1" pageScale="1" pageWidth="827" pageHeight="1169" math="0" shadow="0">
      <root>
        <mxCell id="0" />
        <mxCell id="1" parent="0" />
        <mxCell id="PbtmW9B9AMG8rsbLHsD0-1" value="Buttons" style="shape=note;size=20;whiteSpace=wrap;html=1;fillColor=#dae8fc;strokeColor=#6c8ebf;" vertex="1" parent="1">
          <mxGeometry x="30" y="585" width="100" height="100" as="geometry" />
        </mxCell>
        <mxCell id="PbtmW9B9AMG8rsbLHsD0-2" value="Images" style="shape=note;size=20;whiteSpace=wrap;html=1;fillColor=#dae8fc;strokeColor=#6c8ebf;" vertex="1" parent="1">
          <mxGeometry x="210" y="585" width="100" height="100" as="geometry" />
        </mxCell>
        <mxCell id="PbtmW9B9AMG8rsbLHsD0-3" value="Music" style="shape=note;size=20;whiteSpace=wrap;html=1;fillColor=#dae8fc;strokeColor=#6c8ebf;" vertex="1" parent="1">
          <mxGeometry x="250" y="330" width="100" height="100" as="geometry" />
        </mxCell>
        <mxCell id="PbtmW9B9AMG8rsbLHsD0-4" value="Bang" style="shape=note;size=20;whiteSpace=wrap;html=1;" vertex="1" parent="1">
          <mxGeometry x="660" y="530" width="100" height="100" as="geometry" />
        </mxCell>
        <mxCell id="PbtmW9B9AMG8rsbLHsD0-5" value="Blocks" style="shape=note;size=20;whiteSpace=wrap;html=1;" vertex="1" parent="1">
          <mxGeometry x="660" y="850" width="100" height="100" as="geometry" />
        </mxCell>
        <mxCell id="PbtmW9B9AMG8rsbLHsD0-6" value="Bullet" style="shape=note;size=20;whiteSpace=wrap;html=1;" vertex="1" parent="1">
          <mxGeometry x="660" y="430" width="100" height="100" as="geometry" />
        </mxCell>
        <mxCell id="PbtmW9B9AMG8rsbLHsD0-7" value="Draw&lt;br&gt;Intro" style="shape=note;size=20;whiteSpace=wrap;html=1;" vertex="1" parent="1">
          <mxGeometry x="240" y="70" width="100" height="100" as="geometry" />
        </mxCell>
        <mxCell id="PbtmW9B9AMG8rsbLHsD0-8" value="Global" style="shape=note;size=20;whiteSpace=wrap;html=1;" vertex="1" parent="1">
          <mxGeometry x="120" y="800" width="100" height="100" as="geometry" />
        </mxCell>
        <mxCell id="PbtmW9B9AMG8rsbLHsD0-9" value="Main" style="shape=note;size=20;whiteSpace=wrap;html=1;" vertex="1" parent="1">
          <mxGeometry x="340" y="850" width="100" height="100" as="geometry" />
        </mxCell>
        <mxCell id="PbtmW9B9AMG8rsbLHsD0-10" value="Sounds" style="shape=note;size=20;whiteSpace=wrap;html=1;fillColor=#dae8fc;strokeColor=#6c8ebf;" vertex="1" parent="1">
          <mxGeometry x="414" y="330" width="100" height="100" as="geometry" />
        </mxCell>
        <mxCell id="PbtmW9B9AMG8rsbLHsD0-11" value="Draw&lt;br&gt;Blocks" style="shape=note;size=20;whiteSpace=wrap;html=1;" vertex="1" parent="1">
          <mxGeometry x="500" y="850" width="100" height="100" as="geometry" />
        </mxCell>
        <mxCell id="PbtmW9B9AMG8rsbLHsD0-12" value="Plaing" style="shape=note;size=20;whiteSpace=wrap;html=1;" vertex="1" parent="1">
          <mxGeometry x="350" y="670" width="100" height="100" as="geometry" />
        </mxCell>
        <mxCell id="PbtmW9B9AMG8rsbLHsD0-13" value="Tank" style="shape=note;size=20;whiteSpace=wrap;html=1;" vertex="1" parent="1">
          <mxGeometry x="660" y="230" width="100" height="100" as="geometry" />
        </mxCell>
        <mxCell id="PbtmW9B9AMG8rsbLHsD0-14" value="Ui" style="shape=note;size=20;whiteSpace=wrap;html=1;" vertex="1" parent="1">
          <mxGeometry x="660" y="330" width="100" height="100" as="geometry" />
        </mxCell>
        <mxCell id="PbtmW9B9AMG8rsbLHsD0-15" value="Images&lt;br&gt;Of&lt;br&gt;Blocks" style="shape=note;size=20;whiteSpace=wrap;html=1;" vertex="1" parent="1">
          <mxGeometry x="450" y="670" width="100" height="100" as="geometry" />
        </mxCell>
        <mxCell id="PbtmW9B9AMG8rsbLHsD0-19" value="" style="edgeStyle=segmentEdgeStyle;endArrow=classic;html=1;curved=0;rounded=0;endSize=8;startSize=8;entryX=0;entryY=0;entryDx=40;entryDy=0;entryPerimeter=0;" edge="1" parent="1" source="PbtmW9B9AMG8rsbLHsD0-7" target="PbtmW9B9AMG8rsbLHsD0-1">
          <mxGeometry width="50" height="50" relative="1" as="geometry">
            <mxPoint x="410" y="40" as="sourcePoint" />
            <mxPoint x="460" y="-10" as="targetPoint" />
          </mxGeometry>
        </mxCell>
        <mxCell id="PbtmW9B9AMG8rsbLHsD0-20" value="" style="edgeStyle=segmentEdgeStyle;endArrow=classic;html=1;curved=0;rounded=0;endSize=8;startSize=8;entryX=0;entryY=0;entryDx=40;entryDy=0;entryPerimeter=0;exitX=0.5;exitY=1;exitDx=0;exitDy=0;exitPerimeter=0;" edge="1" parent="1" source="PbtmW9B9AMG8rsbLHsD0-7" target="PbtmW9B9AMG8rsbLHsD0-3">
          <mxGeometry width="50" height="50" relative="1" as="geometry">
            <mxPoint x="550" y="-70" as="sourcePoint" />
            <mxPoint x="390" y="140" as="targetPoint" />
          </mxGeometry>
        </mxCell>
        <mxCell id="PbtmW9B9AMG8rsbLHsD0-21" value="" style="edgeStyle=segmentEdgeStyle;endArrow=classic;html=1;curved=0;rounded=0;endSize=8;startSize=8;entryX=0.5;entryY=0;entryDx=0;entryDy=0;entryPerimeter=0;exitX=0;exitY=0;exitDx=100;exitDy=60;exitPerimeter=0;" edge="1" parent="1" source="PbtmW9B9AMG8rsbLHsD0-7" target="PbtmW9B9AMG8rsbLHsD0-10">
          <mxGeometry width="50" height="50" relative="1" as="geometry">
            <mxPoint x="740" y="-40" as="sourcePoint" />
            <mxPoint x="580" y="170" as="targetPoint" />
          </mxGeometry>
        </mxCell>
        <mxCell id="PbtmW9B9AMG8rsbLHsD0-24" value="" style="edgeStyle=segmentEdgeStyle;endArrow=classic;html=1;curved=0;rounded=0;endSize=8;startSize=8;entryX=0.5;entryY=1;entryDx=0;entryDy=0;entryPerimeter=0;exitX=0.201;exitY=0.008;exitDx=0;exitDy=0;exitPerimeter=0;" edge="1" parent="1" source="PbtmW9B9AMG8rsbLHsD0-12" target="PbtmW9B9AMG8rsbLHsD0-3">
          <mxGeometry width="50" height="50" relative="1" as="geometry">
            <mxPoint x="370" y="660" as="sourcePoint" />
            <mxPoint x="480" y="460" as="targetPoint" />
            <Array as="points">
              <mxPoint x="370" y="510" />
              <mxPoint x="300" y="510" />
            </Array>
          </mxGeometry>
        </mxCell>
        <mxCell id="PbtmW9B9AMG8rsbLHsD0-25" value="" style="edgeStyle=segmentEdgeStyle;endArrow=classic;html=1;curved=0;rounded=0;endSize=8;startSize=8;exitX=0.6;exitY=0.008;exitDx=0;exitDy=0;exitPerimeter=0;" edge="1" parent="1" source="PbtmW9B9AMG8rsbLHsD0-15">
          <mxGeometry width="50" height="50" relative="1" as="geometry">
            <mxPoint x="520" y="660" as="sourcePoint" />
            <mxPoint x="480" y="430" as="targetPoint" />
            <Array as="points">
              <mxPoint x="520" y="550" />
              <mxPoint x="480" y="550" />
            </Array>
          </mxGeometry>
        </mxCell>
        <mxCell id="PbtmW9B9AMG8rsbLHsD0-26" value="" style="edgeStyle=segmentEdgeStyle;endArrow=classic;html=1;curved=0;rounded=0;endSize=8;startSize=8;entryX=0.5;entryY=1;entryDx=0;entryDy=0;entryPerimeter=0;exitX=0;exitY=0;exitDx=40;exitDy=0;exitPerimeter=0;" edge="1" parent="1" source="PbtmW9B9AMG8rsbLHsD0-8" target="PbtmW9B9AMG8rsbLHsD0-1">
          <mxGeometry width="50" height="50" relative="1" as="geometry">
            <mxPoint x="200" y="270" as="sourcePoint" />
            <mxPoint x="120" y="190" as="targetPoint" />
            <Array as="points">
              <mxPoint x="130" y="800" />
              <mxPoint x="130" y="750" />
              <mxPoint x="80" y="750" />
            </Array>
          </mxGeometry>
        </mxCell>
        <mxCell id="PbtmW9B9AMG8rsbLHsD0-27" value="" style="edgeStyle=segmentEdgeStyle;endArrow=classic;html=1;curved=0;rounded=0;endSize=8;startSize=8;entryX=0.5;entryY=1;entryDx=0;entryDy=0;entryPerimeter=0;exitX=0;exitY=0;exitDx=40;exitDy=0;exitPerimeter=0;" edge="1" parent="1" source="PbtmW9B9AMG8rsbLHsD0-8" target="PbtmW9B9AMG8rsbLHsD0-2">
          <mxGeometry width="50" height="50" relative="1" as="geometry">
            <mxPoint x="450" y="320" as="sourcePoint" />
            <mxPoint x="370" y="240" as="targetPoint" />
            <Array as="points">
              <mxPoint x="190" y="800" />
              <mxPoint x="190" y="750" />
              <mxPoint x="260" y="750" />
            </Array>
          </mxGeometry>
        </mxCell>
        <mxCell id="PbtmW9B9AMG8rsbLHsD0-29" value="" style="edgeStyle=segmentEdgeStyle;endArrow=classic;html=1;curved=0;rounded=0;endSize=8;startSize=8;entryX=0;entryY=0;entryDx=100;entryDy=60;entryPerimeter=0;exitX=0.002;exitY=0.6;exitDx=0;exitDy=0;exitPerimeter=0;" edge="1" parent="1" source="PbtmW9B9AMG8rsbLHsD0-14" target="PbtmW9B9AMG8rsbLHsD0-10">
          <mxGeometry width="50" height="50" relative="1" as="geometry">
            <mxPoint x="930" y="140" as="sourcePoint" />
            <mxPoint x="827" y="190" as="targetPoint" />
            <Array as="points">
              <mxPoint x="650" y="390" />
              <mxPoint x="650" y="390" />
            </Array>
          </mxGeometry>
        </mxCell>
        <mxCell id="PbtmW9B9AMG8rsbLHsD0-30" value="" style="edgeStyle=segmentEdgeStyle;endArrow=classic;html=1;curved=0;rounded=0;endSize=8;startSize=8;exitX=0.757;exitY=0.998;exitDx=0;exitDy=0;exitPerimeter=0;" edge="1" parent="1" source="PbtmW9B9AMG8rsbLHsD0-12">
          <mxGeometry width="50" height="50" relative="1" as="geometry">
            <mxPoint x="424" y="780" as="sourcePoint" />
            <mxPoint x="480" y="430" as="targetPoint" />
            <Array as="points">
              <mxPoint x="424" y="770" />
              <mxPoint x="424" y="800" />
              <mxPoint x="605" y="800" />
              <mxPoint x="605" y="630" />
              <mxPoint x="520" y="630" />
              <mxPoint x="520" y="550" />
              <mxPoint x="480" y="550" />
            </Array>
          </mxGeometry>
        </mxCell>
        <mxCell id="PbtmW9B9AMG8rsbLHsD0-31" value="" style="edgeStyle=segmentEdgeStyle;endArrow=classic;html=1;curved=0;rounded=0;endSize=8;startSize=8;entryX=0.5;entryY=1;entryDx=0;entryDy=0;entryPerimeter=0;exitX=0.232;exitY=0.003;exitDx=0;exitDy=0;exitPerimeter=0;" edge="1" parent="1" source="PbtmW9B9AMG8rsbLHsD0-15" target="PbtmW9B9AMG8rsbLHsD0-3">
          <mxGeometry width="50" height="50" relative="1" as="geometry">
            <mxPoint x="483" y="660" as="sourcePoint" />
            <mxPoint x="392" y="410" as="targetPoint" />
            <Array as="points">
              <mxPoint x="483" y="610" />
              <mxPoint x="370" y="610" />
              <mxPoint x="370" y="510" />
              <mxPoint x="300" y="510" />
            </Array>
          </mxGeometry>
        </mxCell>
        <mxCell id="PbtmW9B9AMG8rsbLHsD0-32" value="" style="edgeStyle=segmentEdgeStyle;endArrow=classic;html=1;curved=0;rounded=0;endSize=8;startSize=8;exitX=0.002;exitY=0.6;exitDx=0;exitDy=0;exitPerimeter=0;" edge="1" parent="1">
          <mxGeometry width="50" height="50" relative="1" as="geometry">
            <mxPoint x="660" y="579.5699999999999" as="sourcePoint" />
            <mxPoint x="514" y="390" as="targetPoint" />
            <Array as="points">
              <mxPoint x="587" y="580" />
              <mxPoint x="587" y="390" />
              <mxPoint x="514" y="390" />
            </Array>
          </mxGeometry>
        </mxCell>
        <mxCell id="PbtmW9B9AMG8rsbLHsD0-33" value="" style="edgeStyle=segmentEdgeStyle;endArrow=classic;html=1;curved=0;rounded=0;endSize=8;startSize=8;exitX=0.002;exitY=0.6;exitDx=0;exitDy=0;exitPerimeter=0;entryX=0;entryY=0;entryDx=100;entryDy=60;entryPerimeter=0;" edge="1" parent="1" target="PbtmW9B9AMG8rsbLHsD0-10">
          <mxGeometry width="50" height="50" relative="1" as="geometry">
            <mxPoint x="660" y="479.56999999999994" as="sourcePoint" />
            <mxPoint x="514" y="290" as="targetPoint" />
            <Array as="points">
              <mxPoint x="587" y="480" />
              <mxPoint x="587" y="390" />
            </Array>
          </mxGeometry>
        </mxCell>
        <mxCell id="PbtmW9B9AMG8rsbLHsD0-34" value="" style="edgeStyle=segmentEdgeStyle;endArrow=classic;html=1;curved=0;rounded=0;endSize=8;startSize=8;exitX=0.002;exitY=0.6;exitDx=0;exitDy=0;exitPerimeter=0;entryX=0;entryY=0;entryDx=100;entryDy=60;entryPerimeter=0;" edge="1" parent="1" target="PbtmW9B9AMG8rsbLHsD0-10">
          <mxGeometry width="50" height="50" relative="1" as="geometry">
            <mxPoint x="660" y="279.56999999999994" as="sourcePoint" />
            <mxPoint x="514" y="90" as="targetPoint" />
            <Array as="points">
              <mxPoint x="587" y="280" />
              <mxPoint x="587" y="390" />
            </Array>
          </mxGeometry>
        </mxCell>
      </root>
    </mxGraphModel>
  </diagram>
</mxfile>
